<svg data-v-423bf9ae="" xmlns="http://www.w3.org/2000/svg" viewBox="0 0 497.7011200343799 163" class="iconAbove"><!----><!----><!----><g data-v-423bf9ae="" id="b39b279b-f223-4d8a-b114-f04fe5398c8c" fill="white" transform="matrix(4.224608525153769,0,0,4.224608525153769,-1.1828937674520432,91.60411639791951)"><path d="M4.86 7.71L4.86 7.71Q4.86 7.85 4.94 7.92L4.94 7.92L4.94 7.92Q5.03 7.98 5.28 8.09L5.28 8.09L5.28 8.09Q5.45 8.15 5.71 8.29L5.71 8.29L5.71 8.29Q6.19 8.76 6.52 9.59L6.52 9.59L6.52 9.59Q6.85 10.42 6.85 11.42L6.85 11.42L6.85 11.42Q6.90 11.77 6.90 12.24L6.90 12.24L6.90 12.24Q6.90 13.58 6.33 14.80L6.33 14.80L6.33 14.80Q5.77 16.02 4.86 16.58L4.86 16.58L4.86 16.58Q4.47 16.77 4.05 16.81L4.05 16.81L4.05 16.81Q3.64 16.86 2.86 16.86L2.86 16.86L2.86 16.86Q2.56 16.86 2.00 16.72L2.00 16.72L2.00 16.72Q1.41 16.58 1.13 16.58L1.13 16.58L1.13 16.58Q0.78 16.58 0.62 16.55L0.62 16.55L0.62 16.55Q0.46 16.52 0.37 16.40L0.37 16.40L0.37 16.40Q0.28 16.28 0.28 16.00L0.28 16.00L0.28 15.71L1.13 15.71L1.13 15.71Q1.22 15.36 1.27 14.59L1.27 14.59L1.27 14.59Q1.29 14.20 1.29 13.38L1.29 13.38L1.29 13.38Q1.29 12.56 1.31 11.99L1.31 11.99L1.31 11.99Q1.33 11.42 1.43 10.85L1.43 10.85L1.43 10.29L1.43 8.86L1.43 5.99L1.43 3.71L1.43 3.71Q0.85 3.71 0.57 3.61L0.57 3.61L0.57 3.61Q0.28 3.51 0.28 3.14L0.28 3.14L0.28 3.14Q0.46 2.95 0.80 2.91L0.80 2.91L0.80 2.91Q1.13 2.86 1.71 2.86L1.71 2.86L1.71 2.86Q3.14 2.86 3.95 2.95L3.95 2.95L3.95 2.95Q4.76 3.05 5.14 3.43L5.14 3.43L5.14 3.43Q5.19 3.54 5.24 3.63L5.24 3.63L5.24 3.63Q5.29 3.71 5.32 3.78L5.32 3.78L5.32 3.78Q5.53 4.14 5.62 4.42L5.62 4.42L5.62 4.42Q5.71 4.70 5.71 5.14L5.71 5.14L5.71 5.14Q5.78 5.33 5.78 5.63L5.78 5.63L5.78 5.63Q5.78 6.16 5.51 6.74L5.51 6.74L5.51 6.74Q5.24 7.32 4.86 7.71L4.86 7.71ZM3.14 3.71L3.14 3.71Q2.94 3.91 2.90 4.13L2.90 4.13L2.90 4.13Q2.86 4.35 2.86 4.86L2.86 4.86L2.86 4.86Q2.86 5.64 2.90 6.06L2.90 6.06L2.90 6.06Q2.94 6.47 3.14 6.86L3.14 6.86L3.14 6.86Q3.21 6.93 3.29 6.93L3.29 6.93L3.29 6.93Q3.40 6.93 3.51 6.83L3.51 6.83L3.51 6.83Q3.63 6.72 3.78 6.52L3.78 6.52L3.99 6.29L3.99 6.29Q4.19 5.73 4.29 5.31L4.29 5.31L4.29 5.31Q4.40 4.90 4.40 4.56L4.40 4.56L4.40 4.56Q4.40 4.23 4.28 4.00L4.28 4.00L4.28 4.00Q4.09 3.81 3.79 3.76L3.79 3.76L3.79 3.76Q3.49 3.71 3.14 3.71L3.14 3.71ZM4.28 15.43L4.86 14.85L4.86 14.85Q5.04 14.67 5.09 14.37L5.09 14.37L5.09 14.37Q5.14 14.07 5.14 13.72L5.14 13.72L5.14 13.72Q5.35 13.50 5.38 13.43L5.38 13.43L5.38 13.43Q5.42 13.36 5.42 13.15L5.42 13.15L5.42 13.15Q5.54 12.89 5.54 12.42L5.54 12.42L5.54 12.42Q5.54 12.22 5.47 11.49L5.47 11.49L5.47 11.49Q5.42 10.99 5.42 10.85L5.42 10.85L5.43 10.37L5.43 10.37Q5.43 10.21 5.39 10.05L5.39 10.05L5.39 10.05Q5.35 9.90 5.22 9.65L5.22 9.65L5.22 9.65Q5.22 9.65 5.23 9.63L5.23 9.63L5.23 9.63Q5.24 9.60 5.24 9.58L5.24 9.58L5.21 9.37L5.21 9.37Q5.19 9.32 5.13 9.18L5.13 9.18L5.13 9.18Q5.07 9.04 4.98 8.85L4.98 8.85L4.98 8.85Q4.56 8.43 4.07 8.21L4.07 8.21L4.07 8.21Q3.58 7.99 3.14 7.99L3.14 7.99L3.14 7.99Q2.95 8.19 2.91 8.49L2.91 8.49L2.91 8.49Q2.86 8.79 2.86 9.14L2.86 9.14L2.86 13.72L2.86 15.71L2.86 15.71Q3.42 15.71 3.75 15.66L3.75 15.66L3.75 15.66Q4.09 15.61 4.28 15.43L4.28 15.43ZM12.71 3.79L12.11 3.79L12.11 3.79Q11.94 4.58 11.94 5.78L11.94 5.78L11.94 5.78Q11.94 6.57 12.01 7.44L12.01 7.44L12.01 7.44Q12.07 8.32 12.08 8.55L12.08 8.55L12.11 8.85L12.11 8.85Q12.14 9.17 12.14 9.77L12.14 9.77L12.12 10.63L12.12 10.63Q12.11 10.84 12.11 11.21L12.11 11.21L12.11 11.21Q12.11 11.56 12.17 12.49L12.17 12.49L12.17 12.49Q12.24 13.30 12.24 14.01L12.24 14.01L12.24 14.01Q12.24 15.02 12.02 15.69L12.02 15.69L12.02 15.69Q11.80 16.35 11.23 16.58L11.23 16.58L11.23 16.58Q10.98 16.70 10.56 16.70L10.56 16.70L10.56 16.70Q10.21 16.70 9.79 16.63L9.79 16.63L9.79 16.63Q9.31 16.58 9.14 16.58L9.14 16.58L9.14 16.58Q8.96 16.58 8.79 16.46L8.79 16.46L8.79 16.46Q8.61 16.34 8.45 16.18L8.45 16.18L8.45 16.18Q8.29 16.03 8.23 15.99L8.23 15.99L8.23 15.99Q7.95 15.71 7.78 15.23L7.78 15.23L7.78 15.23Q7.62 14.74 7.62 14.22L7.62 14.22L7.62 14.22Q7.62 13.48 7.95 12.99L7.95 12.99L7.95 12.99Q8.04 12.99 8.26 12.94L8.26 12.94L8.26 12.94Q8.33 12.92 8.48 12.89L8.48 12.89L8.48 12.89Q8.64 12.87 8.76 12.87L8.76 12.87L8.76 12.87Q9.02 12.87 9.14 12.99L9.14 12.99L9.14 12.99Q8.93 13.38 8.82 13.70L8.82 13.70L8.82 13.70Q8.71 14.01 8.71 14.38L8.71 14.38L8.71 14.38Q8.71 14.70 8.83 15.08L8.83 15.08L8.83 15.08Q8.83 15.33 9.07 15.51L9.07 15.51L9.07 15.51Q9.31 15.68 9.74 15.68L9.74 15.68L10.02 15.39L10.02 15.39Q10.02 14.52 10.18 13.01L10.18 13.01L10.18 13.01Q10.32 11.35 10.32 10.63L10.32 10.63L10.32 10.63Q10.32 10.26 10.23 9.48L10.23 9.48L10.23 9.48Q10.18 9.11 10.16 8.83L10.16 8.83L10.16 8.83Q10.14 8.53 10.14 7.94L10.14 7.94L10.14 7.94Q10.14 7.84 10.11 7.59L10.11 7.59L10.11 7.59Q10.05 7.25 10.07 6.96L10.07 6.96L10.07 6.96Q10.08 6.79 10.05 6.34L10.05 6.34L10.05 6.34Q10.02 6.01 10.02 5.88L10.02 5.88L10.02 5.88Q10.02 5.53 9.94 5.17L9.94 5.17L9.94 5.17Q9.88 4.86 9.88 4.69L9.88 4.69L9.88 4.69Q9.88 4.58 9.91 4.47L9.91 4.47L9.91 4.47Q9.93 4.35 9.93 4.24L9.93 4.24L9.93 4.24Q9.93 3.98 9.74 3.79L9.74 3.79L9.74 3.79Q9.67 3.86 9.51 3.92L9.51 3.92L9.51 3.92Q9.44 3.93 9.25 3.93L9.25 3.93L9.25 3.93Q9.06 3.93 8.90 3.96L8.90 3.96L8.90 3.96Q8.75 3.99 8.54 4.09L8.54 4.09L8.54 4.09Q8.54 4.47 8.44 4.72L8.44 4.72L8.44 4.72Q8.33 4.97 7.95 4.97L7.95 4.97L7.95 4.97Q7.76 4.77 7.70 4.32L7.70 4.32L7.70 4.32Q7.64 3.86 7.64 3.19L7.64 3.19L7.64 3.19Q7.64 3.00 7.79 2.95L7.79 2.95L7.79 2.95Q7.94 2.90 8.23 2.90L8.23 2.90L8.23 2.90Q8.54 2.90 8.99 2.87L8.99 2.87L8.99 2.87Q9.44 2.84 9.65 2.83L9.65 2.83L9.65 2.83Q9.88 2.81 10.48 2.79L10.48 2.79L10.48 2.79Q11.07 2.76 11.51 2.76L11.51 2.76L11.51 2.76Q12.43 2.76 13.01 2.90L13.01 2.90L13.01 2.90Q13.33 3.05 13.52 3.33L13.52 3.33L13.52 3.33Q13.71 3.60 13.71 3.92L13.71 3.92L13.71 3.92Q13.71 4.17 13.59 4.40L13.59 4.40L13.59 4.40Q13.59 4.61 13.56 4.64L13.56 4.64L13.56 4.64Q13.52 4.68 13.29 4.68L13.29 4.68L13.29 4.68Q13.05 4.68 12.98 4.56L12.98 4.56L12.98 4.56Q12.91 4.45 12.88 4.23L12.88 4.23L12.88 4.23Q12.82 3.91 12.71 3.79L12.71 3.79ZM19.28 3.79L18.68 3.79L18.68 3.79Q18.51 4.58 18.51 5.78L18.51 5.78L18.51 5.78Q18.51 6.57 18.57 7.44L18.57 7.44L18.57 7.44Q18.63 8.32 18.65 8.55L18.65 8.55L18.68 8.85L18.68 8.85Q18.70 9.17 18.70 9.77L18.70 9.77L18.69 10.63L18.69 10.63Q18.68 10.84 18.68 11.21L18.68 11.21L18.68 11.21Q18.68 11.56 18.73 12.49L18.73 12.49L18.73 12.49Q18.80 13.30 18.80 14.01L18.80 14.01L18.80 14.01Q18.80 15.02 18.59 15.69L18.59 15.69L18.59 15.69Q18.37 16.35 17.79 16.58L17.79 16.58L17.79 16.58Q17.54 16.70 17.12 16.70L17.12 16.70L17.12 16.70Q16.77 16.70 16.35 16.63L16.35 16.63L16.35 16.63Q15.88 16.58 15.71 16.58L15.71 16.58L15.71 16.58Q15.53 16.58 15.35 16.46L15.35 16.46L15.35 16.46Q15.18 16.34 15.02 16.18L15.02 16.18L15.02 16.18Q14.85 16.03 14.80 15.99L14.80 15.99L14.80 15.99Q14.52 15.71 14.35 15.23L14.35 15.23L14.35 15.23Q14.18 14.74 14.18 14.22L14.18 14.22L14.18 14.22Q14.18 13.48 14.52 12.99L14.52 12.99L14.52 12.99Q14.60 12.99 14.83 12.94L14.83 12.94L14.83 12.94Q14.90 12.92 15.05 12.89L15.05 12.89L15.05 12.89Q15.20 12.87 15.33 12.87L15.33 12.87L15.33 12.87Q15.58 12.87 15.71 12.99L15.71 12.99L15.71 12.99Q15.50 13.38 15.39 13.70L15.39 13.70L15.39 13.70Q15.27 14.01 15.27 14.38L15.27 14.38L15.27 14.38Q15.27 14.70 15.40 15.08L15.40 15.08L15.40 15.08Q15.40 15.33 15.64 15.51L15.64 15.51L15.64 15.51Q15.88 15.68 16.31 15.68L16.31 15.68L16.59 15.39L16.59 15.39Q16.59 14.52 16.74 13.01L16.74 13.01L16.74 13.01Q16.88 11.35 16.88 10.63L16.88 10.63L16.88 10.63Q16.88 10.26 16.80 9.48L16.80 9.48L16.80 9.48Q16.74 9.11 16.73 8.83L16.73 8.83L16.73 8.83Q16.70 8.53 16.70 7.94L16.70 7.94L16.70 7.94Q16.70 7.84 16.67 7.59L16.67 7.59L16.67 7.59Q16.62 7.25 16.63 6.96L16.63 6.96L16.63 6.96Q16.65 6.79 16.62 6.34L16.62 6.34L16.62 6.34Q16.59 6.01 16.59 5.88L16.59 5.88L16.59 5.88Q16.59 5.53 16.51 5.17L16.51 5.17L16.51 5.17Q16.45 4.86 16.45 4.69L16.45 4.69L16.45 4.69Q16.45 4.58 16.47 4.47L16.47 4.47L16.47 4.47Q16.49 4.35 16.49 4.24L16.49 4.24L16.49 4.24Q16.49 3.98 16.31 3.79L16.31 3.79L16.31 3.79Q16.24 3.86 16.07 3.92L16.07 3.92L16.07 3.92Q16.00 3.93 15.82 3.93L15.82 3.93L15.82 3.93Q15.62 3.93 15.47 3.96L15.47 3.96L15.47 3.96Q15.32 3.99 15.11 4.09L15.11 4.09L15.11 4.09Q15.11 4.47 15.00 4.72L15.00 4.72L15.00 4.72Q14.90 4.97 14.52 4.97L14.52 4.97L14.52 4.97Q14.32 4.77 14.27 4.32L14.27 4.32L14.27 4.32Q14.21 3.86 14.21 3.19L14.21 3.19L14.21 3.19Q14.21 3.00 14.36 2.95L14.36 2.95L14.36 2.95Q14.50 2.90 14.80 2.90L14.80 2.90L14.80 2.90Q15.11 2.90 15.55 2.87L15.55 2.87L15.55 2.87Q16.00 2.84 16.21 2.83L16.21 2.83L16.21 2.83Q16.45 2.81 17.05 2.79L17.05 2.79L17.05 2.79Q17.64 2.76 18.07 2.76L18.07 2.76L18.07 2.76Q19.00 2.76 19.57 2.90L19.57 2.90L19.57 2.90Q19.89 3.05 20.08 3.33L20.08 3.33L20.08 3.33Q20.27 3.60 20.27 3.92L20.27 3.92L20.27 3.92Q20.27 4.17 20.16 4.40L20.16 4.40L20.16 4.40Q20.16 4.61 20.13 4.64L20.13 4.64L20.13 4.64Q20.09 4.68 19.85 4.68L19.85 4.68L19.85 4.68Q19.61 4.68 19.54 4.56L19.54 4.56L19.54 4.56Q19.47 4.45 19.45 4.23L19.45 4.23L19.45 4.23Q19.39 3.91 19.28 3.79L19.28 3.79ZM33.84 5.08L33.84 5.08Q33.77 4.98 33.71 4.82L33.71 4.82L33.71 4.82Q33.70 4.72 33.70 4.51L33.70 4.51L33.70 4.51Q33.70 4.28 33.67 4.16L33.67 4.16L33.67 4.16Q33.64 4.03 33.54 3.95L33.54 3.95L33.54 3.95Q33.26 3.79 32.97 3.65L32.97 3.65L32.97 3.65Q32.33 3.65 31.84 3.70L31.84 3.70L31.84 3.70Q31.36 3.75 30.98 3.95L30.98 3.95L30.98 3.95Q30.83 4.09 30.78 4.30L30.78 4.30L30.78 4.30Q30.73 4.52 30.73 4.90L30.73 4.90L30.73 4.90Q30.73 5.56 30.70 6.26L30.70 6.26L30.69 7.07L30.69 7.07Q30.69 7.28 30.76 7.91L30.76 7.91L30.76 7.91Q30.81 8.33 30.81 8.50L30.81 8.50L30.81 8.50Q30.81 8.83 30.69 9.09L30.69 9.09L30.69 9.09Q30.88 9.25 31.32 9.30L31.32 9.30L31.32 9.30Q31.77 9.35 32.40 9.35L32.40 9.35L32.40 9.35Q32.40 9.00 32.45 8.76L32.45 8.76L32.45 8.76Q32.49 8.51 32.69 8.51L32.69 8.51L32.69 8.51Q32.90 8.51 32.97 8.55L32.97 8.55L32.97 8.55Q33.04 8.58 33.26 8.79L33.26 8.79L33.26 8.79Q33.19 8.93 33.19 9.10L33.19 9.10L33.19 9.10Q33.18 9.17 33.18 9.34L33.18 9.34L33.18 9.34Q33.18 9.63 33.22 9.95L33.22 9.95L33.22 9.95Q33.25 10.35 33.25 10.51L33.25 10.51L33.25 10.51Q33.25 10.79 33.19 10.94L33.19 10.94L33.19 10.94Q33.12 11.09 32.97 11.09L32.97 11.09L32.97 11.09Q32.93 11.06 32.79 10.98L32.79 10.98L32.79 10.98Q32.65 10.89 32.52 10.77L32.52 10.77L32.52 10.77Q32.40 10.64 32.40 10.51L32.40 10.51L32.40 10.22L30.98 10.22L30.98 10.22Q30.83 10.67 30.83 11.41L30.83 11.41L30.83 11.41Q30.83 11.89 30.87 12.35L30.87 12.35L30.87 12.35Q30.90 12.91 30.90 13.12L30.90 13.12L30.90 13.12Q30.90 13.17 30.94 14.64L30.94 14.64L30.94 14.64Q30.98 15.26 30.98 15.65L30.98 15.65L30.98 15.65Q31.56 15.85 32.01 15.89L32.01 15.89L32.01 15.89Q32.47 15.93 33.26 15.93L33.26 15.93L33.26 15.93Q33.47 15.83 33.52 15.64L33.52 15.64L33.52 15.64Q33.56 15.51 33.56 15.23L33.56 15.23L33.56 15.23Q33.56 14.94 33.61 14.78L33.61 14.78L33.61 14.78Q33.66 14.62 33.84 14.52L33.84 14.52L33.84 14.52Q34.22 14.52 34.31 14.90L34.31 14.90L34.31 14.90Q34.41 15.29 34.41 15.93L34.41 15.93L34.41 15.93Q34.41 16.13 34.28 16.30L34.28 16.30L34.28 16.30Q34.15 16.48 33.84 16.80L33.84 16.80L32.40 16.80L32.40 16.80Q30.97 16.80 29.97 16.75L29.97 16.75L29.97 16.75Q28.97 16.70 27.83 16.51L27.83 16.51L27.83 15.93L28.98 15.93L28.98 15.93Q29.11 15.19 29.11 14.31L29.11 14.31L29.11 14.31Q29.11 13.82 29.05 12.78L29.05 12.78L29.05 12.78Q28.98 11.87 28.98 11.09L28.98 11.09L28.98 10.51L28.98 7.64L28.98 6.51L28.98 3.95L27.83 3.95L27.83 3.37L27.83 3.37Q28.42 3.22 29.60 3.08L29.60 3.08L29.60 3.08Q30.72 2.94 31.26 2.80L31.26 2.80L34.12 2.80L34.12 2.80Q34.15 2.83 34.22 2.91L34.22 2.91L34.22 2.91Q34.29 2.98 34.35 3.12L34.35 3.12L34.35 3.12Q34.41 3.25 34.41 3.37L34.41 3.37L34.41 3.37Q34.41 3.54 34.48 3.85L34.48 3.85L34.48 3.85Q34.55 4.34 34.55 4.44L34.55 4.44L34.55 4.44Q34.55 4.75 34.40 4.91L34.40 4.91L34.40 4.91Q34.24 5.08 33.84 5.08L33.84 5.08ZM43.55 3.00L43.55 3.00Q43.55 3.12 43.49 3.25L43.49 3.25L43.49 3.25Q43.43 3.37 43.36 3.45L43.36 3.45L43.36 3.45Q43.30 3.53 43.27 3.56L43.27 3.56L42.70 3.56L42.70 3.56Q42.57 3.68 42.57 3.85L42.57 3.85L42.57 3.85Q42.57 3.92 42.63 4.14L42.63 4.14L42.63 4.14Q42.70 4.52 42.70 4.69L42.70 4.69L42.70 7.87L42.70 7.87Q42.70 12.96 42.92 16.17L42.92 16.17L42.92 16.17Q42.94 16.51 42.76 16.66L42.76 16.66L42.76 16.66Q42.57 16.81 42.31 16.81L42.31 16.81L42.31 16.81Q42.11 16.81 41.92 16.74L41.92 16.74L41.92 16.74Q41.73 16.67 41.64 16.58L41.64 16.58L41.64 16.58Q41.52 16.24 41.38 15.80L41.38 15.80L41.38 15.80Q41.23 15.36 41.05 14.80L41.05 14.80L41.05 14.80Q40.03 11.80 39.61 10.32L39.61 10.32L39.61 10.32Q39.48 9.84 39.23 9.28L39.23 9.28L39.23 9.28Q38.98 8.71 38.95 8.65L38.95 8.65L38.95 8.65Q38.86 8.47 38.82 8.35L38.82 8.35L38.82 8.35Q38.78 8.23 38.77 8.20L38.77 8.20L38.77 8.20Q38.65 7.95 38.60 7.56L38.60 7.56L38.60 7.56Q38.53 7.20 38.44 7.01L38.44 7.01L38.44 7.01Q38.36 6.82 38.12 6.69L38.12 6.69L38.12 8.65L38.12 10.89L38.12 13.15L38.12 13.99L38.12 15.39L38.12 15.39Q38.30 15.57 38.49 15.62L38.49 15.62L38.49 15.62Q38.68 15.67 38.95 15.67L38.95 15.67L38.95 15.67Q38.95 15.81 38.98 16.09L38.98 16.09L38.98 16.09Q39.00 16.31 39.00 16.39L39.00 16.39L39.00 16.39Q39.00 16.59 38.93 16.69L38.93 16.69L38.93 16.69Q38.85 16.79 38.64 16.79L38.64 16.79L38.01 16.80L36.13 16.84L36.13 16.84Q36.02 16.84 35.99 16.75L35.99 16.75L35.99 16.75Q35.95 16.66 35.95 16.48L35.95 16.48L35.95 16.48Q35.95 16.28 35.97 16.17L35.97 16.17L35.98 15.75L35.98 15.75Q36.01 15.76 36.10 15.79L36.10 15.79L36.10 15.79Q36.19 15.82 36.27 15.82L36.27 15.82L36.27 15.82Q36.44 15.82 36.44 15.67L36.44 15.67L36.44 15.67Q36.60 15.34 36.60 14.81L36.60 14.81L36.60 14.81Q36.60 14.59 36.57 14.20L36.57 14.20L36.57 14.20Q36.54 13.83 36.54 13.71L36.54 13.71L36.54 13.71Q36.54 13.22 36.48 12.21L36.48 12.21L36.48 12.21Q36.44 11.59 36.44 11.19L36.44 11.19L36.43 9.21L36.43 9.21Q36.43 8.89 36.37 8.36L36.37 8.36L36.37 8.36Q36.32 7.83 36.32 7.56L36.32 7.56L36.32 7.56Q36.32 7.48 36.25 7.13L36.25 7.13L36.25 7.13Q36.16 6.82 36.16 6.69L36.16 6.69L36.16 6.41L36.16 5.56L36.16 5.56Q36.16 5.35 36.15 5.26L36.15 5.26L36.13 4.84L36.13 4.84Q36.13 4.62 35.99 4.28L35.99 4.28L35.99 4.28Q35.88 4.00 35.88 3.88L35.88 3.88L35.88 3.88Q35.48 3.88 35.25 3.71L35.25 3.71L35.25 3.71Q35.03 3.54 35.03 3.32L35.03 3.32L35.03 3.32Q35.03 3.11 35.17 2.95L35.17 2.95L35.17 2.95Q35.31 2.80 35.52 2.80L35.52 2.80L35.52 2.80Q35.63 2.80 35.69 2.79L35.69 2.79L35.69 2.79Q35.76 2.79 35.81 2.79L35.81 2.79L35.81 2.79Q35.94 2.76 36.16 2.74L36.16 2.74L36.16 2.74Q36.26 2.73 36.39 2.75L36.39 2.75L36.39 2.75Q36.51 2.77 36.58 2.77L36.58 2.77L36.58 2.77Q36.86 2.80 37.07 2.80L37.07 2.80L37.07 2.80Q37.24 2.80 37.35 2.91L37.35 2.91L37.35 2.91Q37.46 3.02 37.51 3.15L37.51 3.15L37.51 3.15Q37.56 3.28 37.56 3.32L37.56 3.32L37.56 3.32Q38.11 4.12 38.50 5.01L38.50 5.01L38.50 5.01Q38.89 5.89 39.42 7.28L39.42 7.28L39.42 7.28Q39.89 8.50 40.08 8.93L40.08 8.93L40.08 8.93Q40.26 9.51 40.46 9.93L40.46 9.93L40.46 9.93Q40.66 10.36 40.94 10.89L40.94 10.89L40.94 10.89Q40.94 11.09 40.98 11.26L40.98 11.26L40.98 11.26Q41.03 11.44 41.17 11.76L41.17 11.76L41.17 11.76Q41.22 11.84 41.31 12.21L41.31 12.21L41.31 12.21Q41.43 12.56 41.57 12.94L41.57 12.94L41.57 12.94Q41.71 13.33 41.83 13.50L41.83 13.50L41.83 13.50Q41.86 13.54 41.87 13.49L41.87 13.49L41.87 13.49Q41.87 13.44 41.87 13.34L41.87 13.34L41.87 13.34Q41.87 13.13 41.82 12.40L41.82 12.40L41.82 12.40Q41.76 11.68 41.76 11.47L41.76 11.47L41.76 11.47Q41.76 10.84 41.82 9.27L41.82 9.27L41.82 9.27Q41.87 7.59 41.87 6.65L41.87 6.65L41.87 6.37L41.87 6.37Q41.87 5.94 41.73 5.24L41.73 5.24L41.73 5.24Q41.59 4.54 41.59 4.12L41.59 4.12L41.59 4.12Q41.33 3.85 41.13 3.70L41.13 3.70L41.13 3.70Q40.92 3.56 40.74 3.56L40.74 3.56L40.74 3.56Q40.66 3.47 40.55 3.40L40.55 3.40L40.55 3.40Q40.45 3.32 40.40 3.25L40.40 3.25L40.40 3.25Q40.35 3.18 40.35 3.08L40.35 3.08L40.35 3.08Q40.35 2.93 40.46 2.70L40.46 2.70L40.46 2.70Q40.59 2.70 40.66 2.74L40.66 2.74L40.66 2.74Q40.74 2.79 40.96 2.79L40.96 2.79L40.96 2.79Q41.23 2.79 41.39 2.75L41.39 2.75L41.39 2.75Q41.55 2.72 41.59 2.70L41.59 2.70L41.59 2.70Q41.76 2.74 41.96 2.74L41.96 2.74L41.96 2.74Q42.10 2.74 42.41 2.72L42.41 2.72L42.41 2.72Q42.84 2.69 43.02 2.70L43.02 2.70L43.02 2.70Q43.43 2.73 43.55 3.00L43.55 3.00ZM50.81 3.67L50.81 3.67Q50.81 3.77 50.85 3.83L50.85 3.83L50.85 3.83Q50.90 3.89 50.96 3.95L50.96 3.95L50.96 3.95Q51.11 4.07 51.11 4.23L51.11 4.23L51.11 4.23Q51.11 4.89 51.06 5.29L51.06 5.29L51.06 5.29Q51.00 5.68 50.81 5.68L50.81 5.68L50.81 5.68Q50.57 5.68 50.50 5.49L50.50 5.49L50.50 5.49Q50.43 5.29 50.39 4.87L50.39 4.87L50.39 4.87Q50.36 4.35 50.23 4.23L50.23 4.23L50.23 4.23Q49.59 4.02 48.96 4.02L48.96 4.02L48.96 4.02Q48.34 4.02 47.91 4.23L47.91 4.23L47.91 4.23Q47.73 4.41 47.46 4.97L47.46 4.97L47.46 4.97Q47.21 5.50 47.03 5.68L47.03 5.68L47.03 5.68Q47.03 5.75 46.97 5.92L46.97 5.92L46.97 5.92Q46.91 6.09 46.75 6.27L46.75 6.27L46.75 6.27Q46.54 7.07 46.49 7.76L46.49 7.76L46.49 7.76Q46.44 8.46 46.44 9.77L46.44 9.77L46.44 11.51L46.44 11.51Q47.08 15.16 48.48 15.89L48.48 15.89L48.48 15.89Q48.71 16.00 48.99 16.00L48.99 16.00L48.99 16.00Q49.27 16.00 49.56 15.90L49.56 15.90L49.56 15.90Q49.85 15.79 50.23 15.58L50.23 15.58L50.23 15.58Q50.34 15.37 50.36 15.11L50.36 15.11L50.36 15.11Q50.37 14.94 50.37 14.56L50.37 14.56L50.37 14.56Q50.37 14.20 50.39 13.96L50.39 13.96L50.39 13.96Q50.41 13.73 50.51 13.54L50.51 13.54L50.51 13.54Q50.75 13.54 50.88 13.59L50.88 13.59L50.88 13.59Q51.00 13.64 51.13 13.73L51.13 13.73L51.13 13.73Q51.14 13.75 51.22 13.80L51.22 13.80L51.22 13.80Q51.30 13.85 51.39 13.85L51.39 13.85L51.39 15.89L51.39 15.89Q51.00 16.83 49.41 16.83L49.41 16.83L49.41 16.83Q48.80 16.83 48.20 16.73L48.20 16.73L48.20 16.73Q47.59 16.63 46.75 16.45L46.75 16.45L46.75 16.45Q46.40 16.13 46.21 15.99L46.21 15.99L46.21 15.99Q45.81 15.67 45.53 15.39L45.53 15.39L45.53 15.39Q45.26 15.12 45.00 14.70L45.00 14.70L45.00 14.70Q44.86 14.04 44.70 13.47L44.70 13.47L44.70 13.47Q44.41 12.28 44.26 11.45L44.26 11.45L44.26 11.45Q44.11 10.61 44.11 9.77L44.11 9.77L44.11 9.77Q44.20 9.32 44.34 8.43L44.34 8.43L44.34 8.43Q44.51 7.39 44.65 6.71L44.65 6.71L44.65 6.71Q44.79 6.03 45.00 5.40L45.00 5.40L45.00 5.40Q45.11 5.28 45.25 5.00L45.25 5.00L45.25 5.00Q45.35 4.70 45.56 4.52L45.56 4.52L45.56 4.52Q46.06 3.81 46.91 3.30L46.91 3.30L46.91 3.30Q47.75 2.79 48.76 2.79L48.76 2.79L48.76 2.79Q49.13 2.90 49.38 2.95L49.38 2.95L49.38 2.95Q49.92 3.11 50.22 3.24L50.22 3.24L50.22 3.24Q50.51 3.37 50.81 3.67L50.81 3.67ZM59.46 2.91L59.46 2.91Q59.46 3.25 59.42 3.48L59.42 3.48L59.42 3.48Q59.37 3.71 59.21 3.71L59.21 3.71L58.38 3.71L58.38 3.71Q58.27 4.06 57.85 5.53L57.85 5.53L57.85 5.53Q57.57 6.61 57.34 7.37L57.34 7.37L57.34 7.37Q57.11 8.13 56.78 8.79L56.78 8.79L56.78 8.79Q56.59 8.99 56.52 9.21L56.52 9.21L56.52 9.21Q56.45 9.42 56.45 9.73L56.45 9.73L56.46 10.21L56.46 10.21Q56.49 10.63 56.49 10.92L56.49 10.92L56.49 10.92Q56.42 11.05 56.42 11.33L56.42 11.33L56.42 11.33Q56.42 11.55 56.48 12.00L56.48 12.00L56.48 12.00Q56.49 12.11 56.50 12.25L56.50 12.25L56.50 12.25Q56.52 12.39 56.52 12.53L56.52 12.53L56.52 12.53Q56.52 12.77 56.49 13.36L56.49 13.36L56.49 13.36Q56.46 13.97 56.46 14.31L56.46 14.31L56.46 14.31Q56.46 15.41 56.78 15.74L56.78 15.74L56.78 15.74Q56.84 15.74 57.02 15.74L57.02 15.74L57.02 15.74Q57.19 15.75 57.35 15.81L57.35 15.81L57.35 15.81Q57.51 15.86 57.51 15.97L57.51 15.97L57.51 15.97Q57.53 16.03 57.57 16.19L57.57 16.19L57.57 16.19Q57.61 16.35 57.61 16.49L57.61 16.49L57.61 16.49Q57.61 16.73 57.47 16.77L57.47 16.77L57.47 16.77Q57.02 16.88 56.50 16.88L56.50 16.88L56.50 16.88Q56.20 16.88 55.69 16.83L55.69 16.83L55.69 16.83Q55.33 16.80 55.19 16.80L55.19 16.80L53.84 16.80L53.84 16.80Q53.66 16.62 53.66 16.41L53.66 16.41L53.66 16.41Q53.66 16.20 53.84 16.00L53.84 16.00L53.84 16.00Q53.96 15.90 54.10 15.89L54.10 15.89L54.10 15.89Q54.19 15.88 54.39 15.88L54.39 15.88L54.39 15.88Q54.60 15.88 54.72 15.86L54.72 15.86L54.72 15.86Q54.84 15.83 54.92 15.74L54.92 15.74L54.94 13.73L54.94 13.73Q54.94 11.73 54.67 10.33L54.67 10.33L54.67 10.33Q54.40 8.93 53.59 8.25L53.59 8.25L53.59 8.25Q53.40 7.66 52.95 6.69L52.95 6.69L52.79 6.37L52.79 6.37Q52.51 5.53 52.38 4.97L52.38 4.97L52.38 4.97Q52.25 4.41 52.25 3.71L52.25 3.71L52.25 3.71Q51.91 3.71 51.68 3.67L51.68 3.67L51.68 3.67Q51.45 3.63 51.45 3.46L51.45 3.46L51.45 3.46Q51.42 3.07 51.63 2.91L51.63 2.91L51.63 2.91Q51.84 2.74 52.22 2.74L52.22 2.74L52.22 2.74Q52.46 2.74 52.85 2.80L52.85 2.80L52.85 2.80Q53.10 2.84 53.30 2.84L53.30 2.84L53.30 2.84Q53.56 2.84 54.10 2.87L54.10 2.87L54.10 2.87Q54.52 2.91 54.92 2.91L54.92 2.91L54.92 2.91Q55.10 3.09 55.15 3.27L55.15 3.27L55.15 3.27Q55.19 3.44 55.19 3.71L55.19 3.71L55.19 3.71Q55.08 3.71 54.88 3.68L54.88 3.68L54.88 3.68Q54.68 3.64 54.56 3.64L54.56 3.64L54.56 3.64Q54.29 3.64 54.15 3.78L54.15 3.78L54.15 3.78Q54.22 4.02 54.24 4.36L54.24 4.36L54.24 4.36Q54.25 4.70 54.26 4.84L54.26 4.84L54.26 4.84Q54.28 5.03 54.35 5.43L54.35 5.43L54.35 5.43Q54.36 5.52 54.38 5.62L54.38 5.62L54.38 5.62Q54.39 5.73 54.39 5.85L54.39 5.85L54.39 5.85Q54.60 6.66 54.96 7.40L54.96 7.40L54.96 7.40Q55.33 8.13 55.72 8.53L55.72 8.53L55.72 8.53Q55.97 8.40 56.10 8.17L56.10 8.17L56.10 8.17Q56.24 7.94 56.42 7.48L56.42 7.48L56.42 7.48Q56.55 7.11 56.69 6.80L56.69 6.80L56.69 6.80Q56.98 6.19 57.16 5.40L57.16 5.40L57.16 5.40Q57.33 4.62 57.34 3.98L57.34 3.98L57.34 3.98Q57.34 3.85 57.25 3.79L57.25 3.79L57.25 3.79Q57.16 3.72 56.92 3.64L56.92 3.64L56.92 3.64Q56.67 3.56 56.51 3.46L56.51 3.46L56.51 3.46Q56.35 3.36 56.27 3.18L56.27 3.18L56.27 3.18Q56.27 2.84 57.16 2.84L57.16 2.84L57.16 2.84Q57.58 2.84 58.00 2.88L58.00 2.88L58.00 2.88Q58.48 2.91 58.66 2.91L58.66 2.91L58.66 2.91Q58.77 2.91 58.94 2.84L58.94 2.84L58.94 2.84Q59.11 2.79 59.21 2.79L59.21 2.79L59.21 2.79Q59.35 2.79 59.46 2.91L59.46 2.91ZM66.23 3.67L66.23 3.67Q66.23 3.77 66.28 3.83L66.28 3.83L66.28 3.83Q66.33 3.89 66.39 3.95L66.39 3.95L66.39 3.95Q66.54 4.07 66.54 4.23L66.54 4.23L66.54 4.23Q66.54 4.89 66.49 5.29L66.49 5.29L66.49 5.29Q66.43 5.68 66.23 5.68L66.23 5.68L66.23 5.68Q66.00 5.68 65.93 5.49L65.93 5.49L65.93 5.49Q65.86 5.29 65.81 4.87L65.81 4.87L65.81 4.87Q65.79 4.35 65.66 4.23L65.66 4.23L65.66 4.23Q65.02 4.02 64.39 4.02L64.39 4.02L64.39 4.02Q63.77 4.02 63.34 4.23L63.34 4.23L63.34 4.23Q63.15 4.41 62.89 4.97L62.89 4.97L62.89 4.97Q62.64 5.50 62.45 5.68L62.45 5.68L62.45 5.68Q62.45 5.75 62.40 5.92L62.40 5.92L62.40 5.92Q62.34 6.09 62.17 6.27L62.17 6.27L62.17 6.27Q61.96 7.07 61.91 7.76L61.91 7.76L61.91 7.76Q61.87 8.46 61.87 9.77L61.87 9.77L61.87 11.51L61.87 11.51Q62.51 15.16 63.91 15.89L63.91 15.89L63.91 15.89Q64.13 16.00 64.41 16.00L64.41 16.00L64.41 16.00Q64.69 16.00 64.99 15.90L64.99 15.90L64.99 15.90Q65.28 15.79 65.66 15.58L65.66 15.58L65.66 15.58Q65.77 15.37 65.79 15.11L65.79 15.11L65.79 15.11Q65.80 14.94 65.80 14.56L65.80 14.56L65.80 14.56Q65.80 14.20 65.82 13.96L65.82 13.96L65.82 13.96Q65.84 13.73 65.94 13.54L65.94 13.54L65.94 13.54Q66.18 13.54 66.30 13.59L66.30 13.59L66.30 13.59Q66.43 13.64 66.56 13.73L66.56 13.73L66.56 13.73Q66.57 13.75 66.65 13.80L66.65 13.80L66.65 13.80Q66.72 13.85 66.82 13.85L66.82 13.85L66.82 15.89L66.82 15.89Q66.43 16.83 64.83 16.83L64.83 16.83L64.83 16.83Q64.23 16.83 63.62 16.73L63.62 16.73L63.62 16.73Q63.01 16.63 62.17 16.45L62.17 16.45L62.17 16.45Q61.82 16.13 61.64 15.99L61.64 15.99L61.64 15.99Q61.24 15.67 60.96 15.39L60.96 15.39L60.96 15.39Q60.69 15.12 60.42 14.70L60.42 14.70L60.42 14.70Q60.28 14.04 60.13 13.47L60.13 13.47L60.13 13.47Q59.84 12.28 59.69 11.45L59.69 11.45L59.69 11.45Q59.54 10.61 59.54 9.77L59.54 9.77L59.54 9.77Q59.63 9.32 59.77 8.43L59.77 8.43L59.77 8.43Q59.93 7.39 60.07 6.71L60.07 6.71L60.07 6.71Q60.21 6.03 60.42 5.40L60.42 5.40L60.42 5.40Q60.54 5.28 60.68 5.00L60.68 5.00L60.68 5.00Q60.77 4.70 60.98 4.52L60.98 4.52L60.98 4.52Q61.49 3.81 62.33 3.30L62.33 3.30L62.33 3.30Q63.18 2.79 64.19 2.79L64.19 2.79L64.19 2.79Q64.55 2.90 64.81 2.95L64.81 2.95L64.81 2.95Q65.35 3.11 65.65 3.24L65.65 3.24L65.65 3.24Q65.94 3.37 66.23 3.67L66.23 3.67ZM71.11 3.22L71.11 3.22Q70.95 3.54 70.71 3.78L70.71 3.78L70.71 3.78Q70.62 3.88 70.58 3.93L70.58 3.93L70.58 3.93Q70.55 3.99 70.55 4.09L70.55 4.09L70.55 4.09Q70.55 5.40 70.46 6.84L70.46 6.84L70.46 6.84Q70.38 8.27 70.36 8.55L70.36 8.55L70.36 8.55Q70.27 10.05 70.22 11.07L70.22 11.07L70.22 11.07Q70.17 12.08 70.17 13.13L70.17 13.13L70.17 13.13Q70.17 14.45 70.24 15.43L70.24 15.43L70.24 15.48L70.24 15.48Q70.24 15.65 70.28 15.67L70.28 15.67L70.28 15.67Q70.32 15.69 70.55 15.71L70.55 15.71L70.55 15.71Q70.74 15.72 70.86 15.71L70.86 15.71L70.86 15.71Q70.98 15.71 71.11 15.71L71.11 15.71L71.11 15.71Q71.15 15.71 71.30 15.71L71.30 15.71L71.30 15.71Q71.44 15.72 71.68 15.71L71.68 15.71L71.99 15.71L71.99 13.97L71.99 12.81L71.99 12.81Q72.11 12.68 72.27 12.68L72.27 12.68L72.27 12.68Q72.38 12.68 72.46 12.73L72.46 12.73L72.46 12.73Q72.55 12.78 72.58 12.81L72.58 12.81L72.58 12.81Q72.93 13.16 72.93 14.01L72.93 14.01L72.93 14.01Q72.93 14.38 72.88 14.76L72.88 14.76L72.88 14.76Q72.86 15.23 72.86 15.43L72.86 15.43L72.86 15.43Q72.86 15.51 72.91 15.74L72.91 15.74L72.91 15.74Q72.98 16.13 72.98 16.21L72.98 16.21L72.98 16.21Q72.98 16.46 72.86 16.59L72.86 16.59L72.86 16.59Q72.21 16.70 71.55 16.72L71.55 16.72L71.55 16.72Q71.12 16.73 70.28 16.73L70.28 16.73L70.28 16.73Q69.45 16.73 68.94 16.75L68.94 16.75L68.94 16.75Q68.42 16.77 67.93 16.87L67.93 16.87L67.93 16.87Q67.77 16.73 67.62 16.65L67.62 16.65L67.62 16.65Q67.47 16.56 67.40 16.49L67.40 16.49L67.40 16.49Q67.34 16.42 67.34 16.28L67.34 16.28L67.34 16.28Q67.34 16.10 67.49 16.05L67.49 16.05L67.49 16.05Q67.63 16.00 67.93 16.00L67.93 16.00L67.93 16.00Q68.12 15.81 68.17 15.58L68.17 15.58L68.17 15.58Q68.21 15.36 68.21 14.84L68.21 14.84L68.21 14.84Q68.40 13.89 68.45 12.69L68.45 12.69L68.45 12.69Q68.50 11.49 68.50 9.91L68.50 9.91L68.50 9.60L68.50 7.01L68.50 7.01Q68.50 6.05 68.45 5.36L68.45 5.36L68.45 5.36Q68.40 4.68 68.21 4.09L68.21 4.09L68.21 4.09Q68.21 3.96 68.15 3.91L68.15 3.91L68.15 3.91Q68.10 3.85 67.94 3.75L67.94 3.75L67.94 3.75Q67.75 3.64 67.62 3.53L67.62 3.53L67.62 2.94L67.93 2.94L67.93 2.94Q68.38 2.94 69.03 2.87L69.03 2.87L69.03 2.87Q69.19 2.86 69.59 2.83L69.59 2.83L69.59 2.83Q69.99 2.80 70.31 2.80L70.31 2.80L70.31 2.80Q70.70 2.80 70.88 2.83L70.88 2.83L70.88 2.83Q71.05 2.84 71.08 2.88L71.08 2.88L71.08 2.88Q71.12 2.93 71.11 3.04L71.11 3.04L71.11 3.04Q71.11 3.15 71.11 3.22L71.11 3.22ZM80.09 15.46L80.09 15.46Q79.95 15.71 79.73 15.95L79.73 15.95L79.73 15.95Q79.51 16.18 79.31 16.31L79.31 16.31L79.31 16.31Q78.50 16.83 77.59 16.83L77.59 16.83L77.59 16.83Q76.68 16.83 75.90 16.34L75.90 16.34L75.90 16.34Q75.12 15.86 74.75 15.16L74.75 15.16L74.75 15.16Q74.23 14.18 73.88 13.15L73.88 13.15L73.88 13.15Q73.70 12.40 73.65 11.64L73.65 11.64L73.65 11.64Q73.60 10.88 73.60 9.73L73.60 9.73L73.60 9.73Q73.60 9.55 73.57 9.21L73.57 9.21L73.57 9.21Q73.54 8.85 73.54 8.67L73.54 8.67L73.54 8.67Q73.54 8.34 73.60 8.01L73.60 8.01L73.60 8.01Q73.61 7.92 73.68 7.55L73.68 7.55L73.68 7.55Q73.75 7.17 73.75 6.92L73.75 6.92L73.75 6.92Q73.78 6.78 73.85 6.38L73.85 6.38L73.85 6.38Q73.91 6.01 73.97 5.78L73.97 5.78L73.97 5.78Q74.03 5.56 74.17 5.43L74.17 5.43L74.17 5.43Q74.33 5.22 74.63 4.75L74.63 4.75L74.63 4.75Q75.05 4.10 75.35 3.74L75.35 3.74L75.35 3.74Q75.66 3.37 76.11 3.11L76.11 3.11L76.11 3.11Q76.57 2.84 77.18 2.84L77.18 2.84L77.18 2.84Q77.46 2.84 77.62 2.87L77.62 2.87L77.62 2.87Q78.46 2.87 78.95 3.12L78.95 3.12L78.95 3.12Q79.45 3.37 79.88 4.02L79.88 4.02L79.88 4.02Q80.54 4.45 81.00 5.36L81.00 5.36L81.00 5.36Q81.45 6.27 81.55 7.36L81.55 7.36L81.55 7.36Q81.61 7.94 81.61 8.88L81.61 8.88L81.61 9.49L81.61 9.49Q81.61 10.92 81.37 11.91L81.37 11.91L81.37 11.91Q80.95 13.90 80.09 15.46L80.09 15.46ZM78.85 15.26L78.85 15.26Q79.03 14.80 79.26 14.08L79.26 14.08L79.26 14.08Q79.49 13.37 79.60 12.88L79.60 12.88L79.60 12.88Q79.79 12.31 79.83 11.73L79.83 11.73L79.83 11.73Q79.88 11.16 79.88 10.30L79.88 10.30L79.88 10.30Q79.88 10.01 79.94 9.56L79.94 9.56L79.94 9.56Q79.94 9.48 79.96 9.26L79.96 9.26L79.96 9.26Q79.98 9.04 79.98 8.85L79.98 8.85L79.98 8.85Q79.98 8.65 79.97 8.39L79.97 8.39L79.97 8.39Q79.95 8.13 79.94 7.99L79.94 7.99L79.94 7.99Q79.88 7.43 79.88 7.15L79.88 7.15L79.88 7.15Q79.74 6.87 79.60 6.31L79.60 6.31L79.60 6.31Q79.46 5.73 79.31 5.43L79.31 5.43L79.16 5.10L79.16 5.10Q78.90 4.55 78.71 4.24L78.71 4.24L78.71 4.24Q78.51 3.93 78.20 3.78L78.20 3.78L78.20 3.78Q77.92 3.78 77.64 3.75L77.64 3.75L77.64 3.75Q77.34 3.72 77.04 3.72L77.04 3.72L77.04 3.72Q76.62 4.14 76.37 4.60L76.37 4.60L76.37 4.60Q76.12 5.05 75.89 5.71L75.89 5.71L75.89 5.71Q75.70 6.09 75.65 6.48L75.65 6.48L75.65 6.48Q75.60 6.86 75.60 7.43L75.60 7.43L75.60 7.43Q75.49 8.33 75.49 9.42L75.49 9.42L75.49 9.42Q75.49 11.40 75.89 13.72L75.89 13.72L75.89 13.72Q75.99 13.92 76.05 14.14L76.05 14.14L76.05 14.14Q76.12 14.36 76.15 14.43L76.15 14.43L76.15 14.43Q76.23 14.73 76.29 14.89L76.29 14.89L76.29 14.89Q76.36 15.05 76.47 15.16L76.47 15.16L76.47 15.16Q76.58 15.16 76.61 15.20L76.61 15.20L76.61 15.20Q76.65 15.25 76.68 15.39L76.68 15.39L76.68 15.39Q76.71 15.53 76.79 15.61L76.79 15.61L76.79 15.61Q77.01 15.83 77.52 15.83L77.52 15.83L77.52 15.83Q77.95 15.83 78.35 15.67L78.35 15.67L78.35 15.67Q78.75 15.51 78.85 15.26L78.85 15.26ZM85.37 15.72L85.37 15.72Q85.86 15.72 86.17 15.84L86.17 15.84L86.17 15.84Q86.48 15.96 86.48 16.18L86.48 16.18L86.48 16.18Q86.48 16.37 86.25 16.60L86.25 16.60L86.25 16.60Q85.89 16.60 84.87 16.67L84.87 16.67L84.87 16.67Q84.14 16.73 83.83 16.73L83.83 16.73L83.83 16.73Q83.23 16.73 82.73 16.60L82.73 16.60L82.73 16.60Q82.70 16.58 82.63 16.49L82.63 16.49L82.63 16.49Q82.56 16.41 82.49 16.28L82.49 16.28L82.49 16.28Q82.42 16.16 82.42 16.02L82.42 16.02L82.42 16.02Q82.64 15.79 82.75 15.76L82.75 15.76L82.75 15.76Q82.87 15.72 83.30 15.72L83.30 15.72L83.30 15.72Q83.47 15.57 83.47 15.16L83.47 15.16L83.47 15.16Q83.47 15.01 83.44 14.70L83.44 14.70L83.44 14.70Q83.41 14.42 83.41 14.31L83.41 14.31L83.41 13.87L83.41 13.87Q83.41 12.56 83.45 11.45L83.45 11.45L83.45 11.45Q83.48 10.14 83.48 9.51L83.48 9.51L83.48 9.51Q83.48 9.14 83.50 8.95L83.50 8.95L83.51 8.12L83.51 8.12Q83.51 7.56 83.48 7.25L83.48 7.25L83.48 7.25Q83.45 6.89 83.45 6.78L83.45 6.78L83.45 6.72L83.45 6.72Q83.45 6.43 83.47 6.24L83.47 6.24L83.47 6.24Q83.50 5.61 83.48 5.03L83.48 5.03L83.50 4.58L83.50 4.58Q83.50 4.38 83.45 4.26L83.45 4.26L83.45 4.26Q83.41 4.14 83.29 4.10L83.29 4.10L83.29 4.10Q83.13 4.03 82.91 4.03L82.91 4.03L82.91 4.03Q82.75 4.02 82.66 3.99L82.66 3.99L82.66 3.99Q82.57 3.96 82.45 3.85L82.45 3.85L82.45 3.85Q82.17 3.70 82.17 3.54L82.17 3.54L82.17 3.54Q82.17 3.44 82.25 3.35L82.25 3.35L82.25 3.35Q82.33 3.25 82.45 3.14L82.45 3.14L82.45 3.14Q82.57 3.04 82.64 2.98L82.64 2.98L82.64 2.98Q83.72 2.79 85.32 2.79L85.32 2.79L86.83 2.80L86.83 2.80Q86.94 2.80 87.02 2.79L87.02 2.79L87.02 2.79Q87.09 2.77 87.15 2.77L87.15 2.77L87.15 2.77Q87.29 2.77 87.43 2.80L87.43 2.80L87.43 2.80Q88.24 2.93 88.89 3.88L88.89 3.88L88.89 3.88Q89.53 4.84 89.77 6.03L89.77 6.03L89.77 6.03Q89.77 6.92 89.72 7.45L89.72 7.45L89.72 7.45Q89.67 7.98 89.47 8.39L89.47 8.39L89.47 8.39Q89.32 8.85 88.99 9.23L88.99 9.23L88.99 9.23Q88.66 9.60 88.13 10.05L88.13 10.05L88.13 10.05Q87.71 10.43 87.71 10.43L87.71 10.43L87.71 10.43Q87.30 10.64 86.89 10.69L86.89 10.69L86.89 10.69Q86.48 10.74 85.67 10.74L85.67 10.74L85.67 10.74Q85.64 10.74 85.58 10.75L85.58 10.75L85.58 10.75Q85.51 10.77 85.44 10.84L85.44 10.84L85.44 10.84Q85.37 10.91 85.37 11.03L85.37 11.03L85.37 11.03Q85.36 11.16 85.36 11.44L85.36 11.44L85.36 11.44Q85.37 11.72 85.37 11.87L85.37 11.87L85.37 12.19L85.37 12.19Q85.37 12.71 85.30 13.37L85.30 13.37L85.30 13.37Q85.29 13.52 85.26 13.89L85.26 13.89L85.26 13.89Q85.23 14.25 85.23 14.55L85.23 14.55L85.23 14.55Q85.23 15.16 85.37 15.72L85.37 15.72ZM85.37 8.09L85.37 9.55L85.37 9.55Q85.50 9.69 85.69 9.76L85.69 9.76L85.69 9.76Q85.89 9.83 86.10 9.83L86.10 9.83L86.10 9.83Q86.34 9.83 86.51 9.73L86.51 9.73L86.51 9.73Q86.93 9.46 87.26 9.01L87.26 9.01L87.26 9.01Q87.60 8.55 87.71 8.09L87.71 8.09L87.71 8.09Q87.74 7.95 87.81 7.67L87.81 7.67L87.81 7.67Q87.89 7.38 87.91 7.09L87.91 7.09L87.91 7.09Q87.92 6.80 87.92 6.38L87.92 6.38L87.92 6.38Q87.92 5.74 87.78 5.09L87.78 5.09L87.78 5.09Q87.64 4.44 87.43 3.99L87.43 3.99L87.43 3.99Q87.32 3.99 87.19 3.94L87.19 3.94L87.19 3.94Q87.07 3.89 87.02 3.88L87.02 3.88L87.02 3.88Q86.63 3.68 86.25 3.68L86.25 3.68L85.37 3.68L85.37 3.68Q85.23 4.38 85.23 5.15L85.23 5.15L85.23 5.15Q85.23 5.53 85.26 5.99L85.26 5.99L85.26 5.99Q85.29 6.45 85.30 6.64L85.30 6.64L85.30 6.64Q85.37 7.45 85.37 8.09L85.37 8.09ZM96.52 5.08L96.52 5.08Q96.45 4.98 96.39 4.82L96.39 4.82L96.39 4.82Q96.38 4.72 96.38 4.51L96.38 4.51L96.38 4.51Q96.38 4.28 96.35 4.16L96.35 4.16L96.35 4.16Q96.32 4.03 96.22 3.95L96.22 3.95L96.22 3.95Q95.94 3.79 95.65 3.65L95.65 3.65L95.65 3.65Q95.00 3.65 94.52 3.70L94.52 3.70L94.52 3.70Q94.04 3.75 93.66 3.95L93.66 3.95L93.66 3.95Q93.51 4.09 93.46 4.30L93.46 4.30L93.46 4.30Q93.41 4.52 93.41 4.90L93.41 4.90L93.41 4.90Q93.41 5.56 93.38 6.26L93.38 6.26L93.37 7.07L93.37 7.07Q93.37 7.28 93.44 7.91L93.44 7.91L93.44 7.91Q93.49 8.33 93.49 8.50L93.49 8.50L93.49 8.50Q93.49 8.83 93.37 9.09L93.37 9.09L93.37 9.09Q93.56 9.25 94.00 9.30L94.00 9.30L94.00 9.30Q94.44 9.35 95.07 9.35L95.07 9.35L95.07 9.35Q95.07 9.00 95.12 8.76L95.12 8.76L95.12 8.76Q95.17 8.51 95.37 8.51L95.37 8.51L95.37 8.51Q95.58 8.51 95.65 8.55L95.65 8.55L95.65 8.55Q95.72 8.58 95.94 8.79L95.94 8.79L95.94 8.79Q95.87 8.93 95.87 9.10L95.87 9.10L95.87 9.10Q95.86 9.17 95.86 9.34L95.86 9.34L95.86 9.34Q95.86 9.63 95.90 9.95L95.90 9.95L95.90 9.95Q95.93 10.35 95.93 10.51L95.93 10.51L95.93 10.51Q95.93 10.79 95.86 10.94L95.86 10.94L95.86 10.94Q95.80 11.09 95.65 11.09L95.65 11.09L95.65 11.09Q95.61 11.06 95.47 10.98L95.47 10.98L95.47 10.98Q95.33 10.89 95.20 10.77L95.20 10.77L95.20 10.77Q95.07 10.64 95.07 10.51L95.07 10.51L95.07 10.22L93.66 10.22L93.66 10.22Q93.51 10.67 93.51 11.41L93.51 11.41L93.51 11.41Q93.51 11.89 93.55 12.35L93.55 12.35L93.55 12.35Q93.58 12.91 93.58 13.12L93.58 13.12L93.58 13.12Q93.58 13.17 93.62 14.64L93.62 14.64L93.62 14.64Q93.66 15.26 93.66 15.65L93.66 15.65L93.66 15.65Q94.23 15.85 94.69 15.89L94.69 15.89L94.69 15.89Q95.14 15.93 95.94 15.93L95.94 15.93L95.94 15.93Q96.15 15.83 96.19 15.64L96.19 15.64L96.19 15.64Q96.24 15.51 96.24 15.23L96.24 15.23L96.24 15.23Q96.24 14.94 96.28 14.78L96.28 14.78L96.28 14.78Q96.33 14.62 96.52 14.52L96.52 14.52L96.52 14.52Q96.89 14.52 96.99 14.90L96.99 14.90L96.99 14.90Q97.09 15.29 97.09 15.93L97.09 15.93L97.09 15.93Q97.09 16.13 96.96 16.30L96.96 16.30L96.96 16.30Q96.82 16.48 96.52 16.80L96.52 16.80L95.07 16.80L95.07 16.80Q93.65 16.80 92.64 16.75L92.64 16.75L92.64 16.75Q91.64 16.70 90.51 16.51L90.51 16.51L90.51 15.93L91.66 15.93L91.66 15.93Q91.78 15.19 91.78 14.31L91.78 14.31L91.78 14.31Q91.78 13.82 91.73 12.78L91.73 12.78L91.73 12.78Q91.66 11.87 91.66 11.09L91.66 11.09L91.66 10.51L91.66 7.64L91.66 6.51L91.66 3.95L90.51 3.95L90.51 3.37L90.51 3.37Q91.10 3.22 92.27 3.08L92.27 3.08L92.27 3.08Q93.39 2.94 93.94 2.80L93.94 2.80L96.80 2.80L96.80 2.80Q96.82 2.83 96.89 2.91L96.89 2.91L96.89 2.91Q96.96 2.98 97.03 3.12L97.03 3.12L97.03 3.12Q97.09 3.25 97.09 3.37L97.09 3.37L97.09 3.37Q97.09 3.54 97.16 3.85L97.16 3.85L97.16 3.85Q97.23 4.34 97.23 4.44L97.23 4.44L97.23 4.44Q97.23 4.75 97.08 4.91L97.08 4.91L97.08 4.91Q96.92 5.08 96.52 5.08L96.52 5.08ZM97.83 15.92L99.01 15.92L99.01 15.92Q99.18 15.92 99.32 15.78L99.32 15.78L99.32 15.78Q99.46 15.64 99.61 15.64L99.61 15.64L99.61 12.35L99.61 12.35Q99.61 11.62 99.53 10.93L99.53 10.93L99.53 10.93Q99.46 10.25 99.44 10.12L99.44 10.12L99.44 10.12Q99.32 9.21 99.32 8.78L99.32 8.78L99.32 8.78Q99.32 7.59 99.27 6.85L99.27 6.85L99.27 6.85Q99.22 6.10 99.01 5.52L99.01 5.52L99.01 4.31L99.01 4.31Q98.83 4.31 98.49 4.42L98.49 4.42L98.49 4.42Q98.21 4.51 98.11 4.51L98.11 4.51L98.11 4.51Q97.83 4.51 97.83 4.00L97.83 4.00L97.83 4.00Q97.83 3.89 97.89 3.83L97.89 3.83L97.89 3.83Q97.96 3.77 98.10 3.67L98.10 3.67L98.10 3.67Q98.32 3.54 98.43 3.43L98.43 3.43L98.73 3.12L98.73 3.12Q99.12 2.93 99.52 2.88L99.52 2.88L99.52 2.88Q99.92 2.83 100.52 2.83L100.52 2.83L100.52 2.83Q100.73 2.83 101.01 2.80L101.01 2.80L101.40 2.79L101.40 2.79Q101.68 2.79 102.03 2.84L102.03 2.84L102.03 2.84Q102.06 2.83 102.14 2.81L102.14 2.81L102.14 2.81Q102.21 2.79 102.30 2.83L102.30 2.83L102.30 2.83Q102.45 2.97 102.90 3.28L102.90 3.28L102.90 3.28Q102.98 3.35 103.18 3.48L103.18 3.48L103.18 3.48Q103.38 3.61 103.49 3.72L103.49 3.72L103.49 3.72Q103.89 3.91 104.15 4.27L104.15 4.27L104.15 4.27Q104.40 4.63 104.68 5.21L104.68 5.21L104.68 5.21Q105.06 5.98 105.26 6.55L105.26 6.55L105.26 6.55Q105.46 7.13 105.56 7.91L105.56 7.91L105.60 8.26L105.60 8.26Q105.62 8.36 105.67 8.83L105.67 8.83L105.67 8.83Q105.73 9.31 105.73 9.76L105.73 9.76L105.73 9.76Q105.73 10.50 105.56 11.16L105.56 11.16L105.56 11.16Q105.56 11.98 105.25 12.76L105.25 12.76L105.25 12.76Q104.94 13.54 104.56 14.13L104.56 14.13L104.56 14.13Q104.17 14.71 103.49 15.64L103.49 15.64L103.49 15.64Q103.33 15.71 103.03 15.90L103.03 15.90L103.03 15.90Q102.52 16.20 102.10 16.36L102.10 16.36L102.10 16.36Q101.68 16.52 101.09 16.52L101.09 16.52L100.52 16.52L100.52 16.52Q100.13 16.72 99.61 16.77L99.61 16.77L99.61 16.77Q99.09 16.81 98.43 16.81L98.43 16.81L98.43 16.81Q98.15 16.53 97.99 16.32L97.99 16.32L97.99 16.32Q97.83 16.11 97.83 15.92L97.83 15.92ZM101.09 3.72L101.09 3.72Q100.90 3.92 100.90 4.56L100.90 4.56L100.91 5.21L100.91 5.21Q100.91 5.91 100.95 6.45L100.95 6.45L100.95 6.45Q100.98 7.04 100.98 7.29L100.98 7.29L100.98 7.29Q100.98 7.56 101.04 8.18L101.04 8.18L101.04 8.18Q101.09 8.88 101.09 9.38L101.09 9.38L101.09 12.35L101.09 12.35Q101.09 12.63 101.16 12.92L101.16 12.92L101.16 12.92Q101.23 13.20 101.25 13.26L101.25 13.26L101.25 13.26Q101.40 13.80 101.40 14.13L101.40 14.13L101.40 14.13Q101.40 14.39 101.32 14.70L101.32 14.70L101.32 14.70Q101.26 14.95 101.26 15.02L101.26 15.02L101.26 15.02Q101.26 15.19 101.40 15.33L101.40 15.33L101.40 15.33Q101.54 15.33 101.85 15.19L101.85 15.19L101.85 15.19Q102.13 15.04 102.30 15.04L102.30 15.04L102.30 15.04Q102.30 14.90 102.37 14.83L102.37 14.83L102.37 14.83Q102.44 14.76 102.51 14.74L102.51 14.74L102.51 14.74Q102.58 14.73 102.61 14.73L102.61 14.73L102.61 14.73Q102.79 14.73 102.84 14.62L102.84 14.62L102.84 14.62Q102.89 14.50 102.89 14.43L102.89 14.43L102.89 14.43Q103.29 13.85 103.39 13.10L103.39 13.10L103.39 13.10Q103.49 12.35 103.49 11.16L103.49 11.16L103.49 11.16Q103.49 10.99 103.54 10.54L103.54 10.54L103.54 10.54Q103.61 9.84 103.61 9.66L103.61 9.66L103.61 9.66Q103.61 9.16 103.49 8.78L103.49 8.78L103.49 7.88L103.49 7.88Q103.43 7.59 103.31 6.82L103.31 6.82L103.31 6.82Q103.12 5.71 102.94 5.09L102.94 5.09L102.94 5.09Q102.75 4.47 102.30 4.00L102.30 4.00L102.30 4.00Q102.10 3.81 101.86 3.77L101.86 3.77L101.86 3.77Q101.63 3.72 101.09 3.72L101.09 3.72ZM109.09 3.85L109.09 3.85Q108.96 4.19 108.96 4.66L108.96 4.66L108.96 4.66Q108.96 5.04 109.03 5.50L109.03 5.50L109.03 5.50Q109.05 5.60 109.07 5.90L109.07 5.90L109.07 5.90Q109.10 6.20 109.09 6.44L109.09 6.44L109.09 6.44Q109.06 7.29 108.98 9.17L108.98 9.17L108.98 9.17Q108.91 10.77 108.85 12.49L108.85 12.49L108.85 12.49Q108.79 14.21 108.79 15.65L108.79 15.65L108.79 15.65Q108.93 15.79 109.24 15.95L109.24 15.95L109.24 15.95Q109.52 16.09 109.65 16.21L109.65 16.21L109.65 16.21Q109.65 16.34 109.59 16.40L109.59 16.40L109.59 16.40Q109.54 16.46 109.40 16.56L109.40 16.56L109.40 16.56Q109.23 16.66 109.09 16.80L109.09 16.80L109.09 16.80Q108.93 16.73 108.56 16.67L108.56 16.67L108.56 16.67Q108.36 16.66 107.90 16.66L107.90 16.66L107.90 16.66Q107.42 16.66 107.11 16.63L107.11 16.63L107.11 16.63Q106.79 16.60 106.50 16.51L106.50 16.51L106.50 16.51Q106.47 16.49 106.42 16.41L106.42 16.41L106.42 16.41Q106.37 16.32 106.37 16.21L106.37 16.21L106.37 16.21Q106.37 16.06 106.50 15.95L106.50 15.95L106.50 15.95Q106.50 15.85 106.54 15.83L106.54 15.83L106.54 15.83Q106.58 15.81 106.68 15.81L106.68 15.81L106.68 15.81Q106.81 15.81 106.86 15.79L106.86 15.79L106.86 15.79Q107.00 15.74 107.06 15.65L107.06 15.65L107.06 15.65Q107.18 15.53 107.18 15.29L107.18 15.29L107.18 15.29Q107.18 15.18 107.16 15.03L107.16 15.03L107.16 15.03Q107.13 14.88 107.11 14.83L107.11 14.83L107.11 14.83Q107.06 14.57 107.06 14.50L107.06 14.50L107.06 14.50Q107.06 14.07 107.09 13.23L107.09 13.23L107.10 12.00L107.10 12.00Q107.09 11.93 107.07 11.74L107.07 11.74L107.07 11.74Q107.06 11.55 107.06 11.33L107.06 11.33L107.06 8.74L107.06 3.85L107.06 3.85Q106.79 3.85 106.64 3.80L106.64 3.80L106.64 3.80Q106.50 3.75 106.50 3.56L106.50 3.56L106.50 2.98L106.50 2.98Q106.50 2.86 106.60 2.86L106.60 2.86L106.60 2.86Q106.64 2.86 106.88 2.92L106.88 2.92L106.88 2.92Q107.11 2.98 107.35 2.98L107.35 2.98L107.35 2.98Q107.51 2.98 108.01 2.93L108.01 2.93L108.01 2.93Q108.12 2.91 108.42 2.88L108.42 2.88L108.42 2.88Q108.71 2.86 108.93 2.86L108.93 2.86L108.93 2.86Q109.41 2.86 109.65 2.98L109.65 2.98L109.65 2.98Q109.76 3.09 109.76 3.26L109.76 3.26L109.76 3.26Q109.76 3.49 109.57 3.67L109.57 3.67L109.57 3.67Q109.38 3.85 109.09 3.85L109.09 3.85ZM115.75 15.65L115.75 15.65Q115.75 13.79 115.70 12.54L115.70 12.54L115.70 12.54Q115.65 11.30 115.44 10.32L115.44 10.32L115.44 10.32Q115.16 10.32 114.53 10.19L114.53 10.19L114.53 10.19Q113.64 10.02 113.12 10.02L113.12 10.02L113.12 10.02Q112.91 10.22 112.86 10.57L112.86 10.57L112.86 10.57Q112.81 10.92 112.81 11.54L112.81 11.54L112.81 11.54Q112.60 12.32 112.55 13.24L112.55 13.24L112.55 13.24Q112.49 14.17 112.49 15.67L112.49 15.67L112.49 15.67Q112.62 15.76 112.73 15.79L112.73 15.79L112.73 15.79Q112.81 15.81 112.97 15.81L112.97 15.81L112.97 15.81Q113.11 15.81 113.20 15.83L113.20 15.83L113.20 15.83Q113.30 15.85 113.39 15.93L113.39 15.93L113.39 15.93Q113.39 16.16 113.37 16.32L113.37 16.32L113.37 16.32Q113.36 16.48 113.34 16.52L113.34 16.52L113.34 16.52Q112.98 16.77 112.60 16.79L112.60 16.79L112.60 16.79Q112.53 16.80 112.38 16.80L112.38 16.80L112.38 16.80Q112.11 16.80 111.86 16.76L111.86 16.76L111.86 16.76Q111.52 16.73 111.36 16.73L111.36 16.73L111.36 16.73Q111.03 16.73 110.75 16.83L110.75 16.83L110.14 16.24L110.14 16.24Q110.66 15.67 111.02 15.67L111.02 15.67L111.02 15.67Q111.23 15.67 111.28 15.52L111.28 15.52L111.28 15.52Q111.33 15.37 111.33 15.06L111.33 15.06L111.33 15.06Q111.50 13.96 111.82 11.42L111.82 11.42L111.82 11.42Q112.08 9.30 112.20 8.55L112.20 8.55L112.20 8.55Q112.20 7.94 112.37 7.32L112.37 7.32L112.37 7.32Q112.55 6.71 112.81 6.20L112.81 6.20L112.81 6.20Q113.02 5.39 113.37 4.72L113.37 4.72L113.37 4.72Q113.72 4.05 114.27 3.25L114.27 3.25L114.27 3.25Q114.30 3.22 114.42 3.12L114.42 3.12L114.42 3.12Q114.53 3.02 114.72 2.93L114.72 2.93L114.72 2.93Q114.90 2.84 115.09 2.84L115.09 2.84L115.09 2.84Q115.29 2.84 115.44 2.94L115.44 2.94L115.44 2.94Q115.74 3.08 116.03 3.46L116.03 3.46L116.03 3.46Q116.31 3.84 116.49 4.27L116.49 4.27L116.49 4.27Q116.68 4.70 116.68 5.01L116.68 5.01L116.68 5.01Q117.01 5.70 117.12 6.59L117.12 6.59L117.12 6.59Q117.24 7.57 117.52 10.78L117.52 10.78L117.52 10.78Q117.66 12.56 117.81 14.17L117.81 14.17L117.81 15.96L117.81 15.96Q117.81 16.03 117.87 16.12L117.87 16.12L117.87 16.12Q117.92 16.21 117.94 16.24L117.94 16.24L117.94 16.24Q118.09 16.42 118.09 16.55L118.09 16.55L118.09 16.55Q118.09 16.72 117.81 16.84L117.81 16.84L117.45 16.76L117.45 16.76Q117.03 16.76 116.61 16.80L116.61 16.80L116.61 16.80Q116.47 16.81 116.21 16.83L116.21 16.83L116.21 16.83Q115.96 16.84 115.75 16.84L115.75 16.84L115.75 16.84Q115.67 16.86 115.50 16.88L115.50 16.88L115.50 16.88Q115.33 16.90 115.23 16.90L115.23 16.90L115.23 16.90Q114.97 16.90 114.97 16.73L114.97 16.73L114.97 16.73Q114.97 16.58 115.10 16.32L115.10 16.32L115.10 16.32Q115.23 16.06 115.42 15.86L115.42 15.86L115.42 15.86Q115.61 15.65 115.75 15.65L115.75 15.65ZM114.27 4.70L114.27 4.70Q114.04 5.36 113.81 6.13L113.81 6.13L113.81 6.13Q113.58 6.90 113.39 7.67L113.39 7.67L113.39 7.67Q113.39 7.84 113.26 8.34L113.26 8.34L113.26 8.34Q113.12 8.96 113.12 9.17L113.12 9.17L113.12 9.17Q113.69 9.34 114.25 9.39L114.25 9.39L114.25 9.39Q114.80 9.44 115.44 9.44L115.44 9.44L115.44 7.67L115.44 7.67Q115.44 7.04 115.28 6.21L115.28 6.21L115.28 6.21Q115.12 5.38 114.88 4.70L114.88 4.70L114.88 4.70Q114.88 4.63 114.83 4.52L114.83 4.52L114.83 4.52Q114.77 4.41 114.58 4.41L114.58 4.41L114.27 4.70Z"></path></g><!----><g data-v-423bf9ae="" id="1064b6b5-3cce-4c7d-9596-d4efeca9d625" transform="matrix(1.0011123300603315,0,0,1.0011123300603315,199.82801796103792,-4.005561647119251)" stroke="none" fill="white"><path d="M34.3 93.6c1.8-4.5 3.2-9.1 4.9-13.6v-.1c.2-.4.3-.9.5-1.3 0-.1.1-.2.1-.3.1-.4.3-.8.5-1.2.1-.2.1-.3.2-.5.1-.4.3-.7.4-1.1.1-.2.1-.4.2-.5.1-.3.3-.7.4-1l.3-.6c.2-.3.3-.7.5-1l.3-.6c.2-.3.4-.7.6-1 .1-.2.2-.3.3-.5l.9-1.5-1.2-.3c-.2-.1-.4-.1-.7-.2-.1 0-.3-.1-.4-.1-.2-.1-.5-.2-.7-.2-.1 0-.2-.1-.3-.1-.3-.1-.5-.2-.7-.3-.1 0-.1 0-.2-.1-.2-.1-.5-.2-.7-.3 0 0-.1 0-.1-.1-.2-.1-.5-.2-.7-.3h-.1c-.2-.1-.5-.2-.7-.4h-.1c-.2-.1-.4-.3-.7-.4 0 0-.1 0-.1-.1l.3-3.4c.1.1.2.1.3.2.8.5 1.6.9 2.4 1.2h.1c.4.2.8.3 1.2.5 0 0 .1 0 .1.1.4.1.7.3 1.1.4.1 0 .2 0 .3.1.3.1.7.2 1 .3.1 0 .3.1.4.1.3.1.6.1.9.2.2 0 .4.1.7.1.2 0 .4.1.7.1.5 0 .9.1 1.4.1.5 0 1 0 1.4-.1.3 0 .7-.1 1-.1.1 0 .3 0 .4-.1l1.5-.3c2.6-.6 5.3-1.8 8.3-3.6.1 0 .1-.1.2-.1l1.5 3.1s-.1.1-.4.2c-.4.2-1.1.6-1.9 1-.2.1-.3.1-.5.2h-.1c-.1.1-.3.1-.4.2 0 0-.1 0-.1.1-.1.1-.3.1-.4.2-.1 0-.1 0-.2.1s-.3.1-.4.2c-.1 0-.1 0-.2.1s-.3.1-.4.2c-.1 0-.1.1-.2.1-.1.1-.3.1-.4.2-.1 0-.1 0-.2.1s-.3.1-.4.2c-.1 0-.1 0-.2.1-.2.1-.4.1-.5.2 2.3 2.3 3.8 6.2 4.8 9.2.1.2.1.4.2.6 0 .1 0 .1.1.2 0 .2.1.3.1.5 0 .1 0 .1.1.2.1.2.1.4.1.6v.1c.1.2.1.5.2.8v.2c0 .2.1.4.1.6 0 .1 0 .2.1.3 0 .2.1.4.1.6v.2c.1.3.1.5.2.8v.2c0 .2.1.4.1.6 0 .1 0 .2.1.3 0 .2.1.4.1.5 0 .1 0 .2.1.3 0 .2.1.4.1.6 0 .2.1.3.1.5s.1.4.1.5c0 .1 0 .3.1.4 0 .2.1.3.1.5 0 .1 0 .3.1.4 0 .2.1.3.1.5 0 .1 0 .3.1.4 0 .2.1.4.1.6 0 .1 0 .2.1.3 0 .2 0 .3.1.4v.3c0 .2.1.3.1.5v.2c.1.3.1.6.1.9v.1c.2 1.3.3 2.3.4 2.5v.1h-3.7c-.1-.8-.2-1.6-.4-2.4-.1-.8-.3-1.6-.4-2.4.1-.2 0-.5 0-.8-.4-2.3-.8-4.7-1.2-7.1v-.1c-.1-.8-.3-1.6-.4-2.4 0-.1 0-.3-.1-.4-.1-.6-.2-1.3-.3-1.9 0-.2-.1-.4-.1-.6-.1-.8-.2-1.5-.3-2.2-.2-1.3-.4-2.6-1.1-3.7-.6-.8-1.5-1.4-2.3-1.4-.4 0-.7.1-1 .4-1.2 1.1-2.6 1.3-4 1.3h-.4-.1c-.8 0-1.7.1-2 1.3-.1.6-.3 1.2-.5 1.8 0 .2-.1.3-.1.5-.2.6-.3 1.1-.5 1.7 0 .1 0 .1-.1.2-.2.6-.4 1.2-.6 1.9-.1.2-.1.3-.2.5-.2.5-.4 1-.6 1.6 0 .1-.1.2-.1.3-.2.6-.5 1.2-.7 1.8-.1.2-.1.4-.2.5-.2.5-.4.9-.5 1.4-.1.2-.2.4-.2.6-.1.1-.1.3-.2.4-.4 1.1-.8 2.2-1.3 3.2 0 .1-.1.1-.1.2l-.6 1.5c-.3.7-.5 1.4-.8 2.1 0 .1-.1.2-.1.3-.2.7-.5 1.4-.7 2.1h-3.9c0-.1.1-.2.1-.3.3-.4.4-.7.5-.9z"></path><path d="M20.8 83.7c1.9-.8 4-4.6 4-4.6s-.1-1.9-.4-3.1c0-.2-.2-.2-.4-.2-.5 0-1.3.2-1.8.3-.5.1-.9.1-1.2.1-1.3 0-1.4-.5-1.1-2.5.1-.7.3-1.4.5-2.1.8-2.5.8-5.1.4-7.6-.3-1.7-.2-3.5.1-5.2 1.1-6 2.4-12 5.7-17.3.7-1.2 1-2.6 1.6-3.9 1-2.1 3.2-4.1 4.5-5.8l.6-.6c.1-.1.2-.1.2-.2.2-.1.3-.2.5-.3.1-.1.2-.1.3-.2.2-.1.4-.2.5-.3.1-.1.2-.1.4-.2l.6-.3c.1-.1.2-.1.4-.2s.5-.2.8-.3c.1 0 .2-.1.3-.1.4-.1.7-.2 1.1-.4.2-.1.4-.1.5-.2.2-.1.4-.1.6-.2.4-.1.7-.2 1.1-.3.1 0 .1 0 .2-.1.2 2.1.8 4.5 2.2 7l.9 1.5c.7 1.1 1.6 2.5 2.5 4.6-.1.2-.2.3-.3.5-.6.9-1.3 1.9-1.9 2.9-3.6 5.4-5.8 13.9-6.6 17.3l-.6-.4c-3.7-2.1-3-6.1-2.6-10-.8.2-2.1 1.3-2.3 1.9-.3.6-1 3.7-2.2 5.2-.7.8-.9 1.8-.8 2.9.1.8.2 1.8-.3 2.4-.6.9-.4 1.6-.2 2.4.4 1.2.4 2.1-1 2.6 1 1.2 1 1.2 1.6 3.8.2 1 1 1.6 1 1.6s2-.9 2.2-1.2c.6-.9.8-2.2 2.1-2.5-.5-.7-1.8-.1-1.6-1 .1-.9 1-1 1.8-1h.4c.8 0 1.4-.2 1.8-.9.2-.3.3-.9.3-.9 1.8 1.1 3.6 1.9 6.1 2.5-2.8 4.9-4.6 10.2-6.4 15.3-1 3-2.1 6-3.3 9-.3 0-1.1.1-2.2.2H27.7c-.1 0-.2 0-.4.1h-.2c-.1 0-.2 0-.3.1h-.2c-.1 0-.2 0-.3.1h-.1c-.1 0-.3.1-.4.1-.5.1-1 .3-1.6.3-1 0-2-.3-2.7-1.3-.9-1.3-1.7-2.6-2.4-4.1-.8-1.1.1-4.6 1.7-5.2zM41.6 86.3c1.8-4.6 3.7-9.4 4.8-14.1.2-.6.4-.8 1.3-.8h.5c1.5 0 3.1-.2 4.5-1.4.1-.1.3-.2.5-.2.6 0 1.2.4 1.7 1.1.7 1 .9 2.2 1 3.4.5 3.7 1.2 7.7 1.8 11.7.2 1.1.4 2.1.5 3.2l-.4.1c-.1 0-.2.1-.4.1-.6 0-1.5-.5-2-.7-.8-.4-.2-.8 0-1.2.2-.4.3-.8-.3-1.1-1-.5-1.9-1.2-3-1.7-.6-.2-1.2-.4-1.7-.4-.8 0-1.5.3-2.1 1-1.8 1.9-4.5 1.7-7 2.8l-.6.2c.4-.6.7-1.3.9-2zM55 19.8s-.3.9-.5 1.3c-.6 1.6-1.6 3.8-.8 5.4-.7 3.5-2.4 6.9-4.5 10.2-.6-1-1.1-1.8-1.5-2.5-.3-.5-.6-.9-.8-1.3-1.4-2.5-1.7-4.9-1.7-6.6.4-.8.4-1.9.3-2.9-.1-.6-.1-1-.2-1.2-.2-.8-.9-2.3-.9-2.3h-.1c-.3 0-.9-.1-1-.7-.2-1.1-1.2-2.3.3-3.3.2-.1.1-.4 0-.7-.7-2.8-.1-6.2 1.9-8.2 1.2-1.3 2.7-2 4.4-2 1.4 0 3 .8 3.9 1.7 1.8 1.9 3.1 4.8 2 8.7-.1.3.5.5.9 1.1.3.5.1 1.3-.4 2.6-.3.7-1.2.7-1.3.7z"></path><path d="M56.6 68.2c2.5-1 5.3-2.4 5.8-2.7 0 0 3.2 3.8 3.6 4.4 1 1.5 2 3 3.7 4 .2-1.7 2.3-5.2 1.2-8.1-.4-1 1.5-2.3.6-3.3-.7-.7-1-1.7-.8-2.5.4-2-2.2-4-2.2-4-2.1-2.5-2.7-7.1-3-7.9-.3-.8-1.3-2-1.3-2s.5 6.2 0 9.1c-.9 4.5-3.1 5.5-3.1 5.5l-.8.3c-4.5 2.8-8.6 4.1-12.5 4.1-2 0-3.9-.4-5.9-1.1.4-2 2.6-11.5 6.1-16.9.6-1 1.3-1.9 1.9-2.8 3.5-5.2 7-10.5 8.4-16.4.2.1.4.1.6.2h.1c.2.1.5.2.7.3 1.7 1 3.2 1.3 5.6 2.1 2.3.8 4.2 4.4 5.6 6.8 3.6 6.4 7.1 17.6 7.6 20.4.4 2.2.9 6.6.2 9.7-.6 2.5-.7 4.9.8 7.1.3.4.7 1 .4 1.5-.2.4-.6.5-1.1.5-.2 0-.4 0-.6-.1-.2-.1-.5-.1-.8-.1-.4 0-.7.1-.7.3-.1.8-.7 2.6-.7 2.6s5 4.1 4.6 7.7c-.2 1.6.9 2.3.2 4-1 2.6-3.6 4-6 4-.9 0-1.8-.3-2.6-.7-.7-.4-1.5-.7-2.3-.7h-.8c-2 0-5.4-2.1-5.4-2.1l-.2-.1c-.6-4-1.7-10.8-2.9-14.5-1-3.8-2.4-6.7-4-8.6z"></path></g><!----></svg>